<?xml version="1.0" encoding="utf-8"?>
<!-- Generator: Adobe Illustrator 19.2.1, SVG Export Plug-In . SVG Version: 6.00 Build 0)  -->
<svg version="1.1" id="Layer_1" xmlns="http://www.w3.org/2000/svg" xmlns:xlink="http://www.w3.org/1999/xlink" x="0px" y="0px"
	 viewBox="0 0 504 360" style="enable-background:new 0 0 504 360;" xml:space="preserve">
<style type="text/css">
	.st0{fill:#FFFFFF;}
	.st1{fill:#FFFFFF;stroke:#000000;stroke-miterlimit:10;}
	.st2{fill:none;stroke:#000000;stroke-width:0.75;stroke-miterlimit:10;}
	.st3{fill:none;stroke:#000000;stroke-width:0.5;stroke-miterlimit:10;}
</style>
<polygon class="st0" points="230,168 230,170.5 232.5,172.2 232.5,169.2 "/>
<g>
	<g>
		<g>
			<path class="st1" d="M315.6,181.4l-1.8-14c0,0,6.8-16.2-2.8-25c0,0,16.4-32.2,17.4-8.5c0,0,13.7-13.3-11.5-12.2
				c0,0-7.2-14.5-10.7-11.5c0,0,4-5.8,7.7,3.7c0,0,2.8,10.5,1.2-2c0,0,4.7-1.5,7,8.8c0,0,3-11.7-3.7-14.3c0,0-2.2-10-10.7-9.5
				c0,0-1.7-4.7-5.7-3.8c0,0,1.3-22.2-2.3-7.2c0,0-6.5-6-6.3,4.7c0,0,3.2-12.3,5.7,4.2c0,0-18.2-6.3-12.5-14c0,0-18.2-1.6-18.2-4.8
				c0,0-5.3,5.2-5.8-13.2l-1,11.7c0,0-8.8-0.8-7.2,10.5l-3.5,6.9c0,0-6.4-8.1-8.4-6.5c0,0-10.1-1.5-12.6-0.1c0,0-16.2-1.5-15.5,4
				l-4.6,0.2c0,0-3.5-0.3-2.5-3.2c0,0,0.1,3.8-7.8,7c0,0-5.4,4.9-0.8,8.3c0,0-15.7,1.8-12.7,8.9c0,0-10.5,2.6-1.3,9.8
				c0,0-6.1-8.3,1.3-8.2l3.8-2.6l-1.6,4.1l3.8-0.7c0,0-6.4,6.9-1.3,9.1c0,0-13.8,15.8-9.8,17.5c0,0-18.2-22.7-8.8,1.7
				c0,0-4.3-18,5.6-1.2c0,0-0.4,6.6-7.2,10.2c0,0-10.2,8.9,8.5,19.7l-4.8,1.6c0,0-3.5,2,3,3.1l20.4,7.5l0.2,10.1
				c0,0-18.6-14.9-3.3,23.8c0,0,2.7,18.7,10,16c0,0,3.3,29.7,31,42c0,0,32,24.7,53.7-4.3c0,0,22-15.3,23-46.7c0,0,4.5-11.2,5.8-19.9
				C318.1,203.1,324.6,181.1,315.6,181.4z"/>
			<path class="st2" d="M208.6,197.1c0,0,3.7,24.3,29,14.7c0,0,15.2-6.1,13.8-23.7c-0.6,0.6,0.4-6,6.8-4.2c0,0,6.7-2.1,7.7,4.2
				c0,0,3.7,28.7,33.3,18c0,0,9.2-2.3,9-20.1h2.3c0,0-3-8.4,4-6.4v-5.8c0,0-36-6-47,5.8c0,0-2,0.7-9.2,0c0,0-7.7,2-9.8,1.2
				c0,0-17.7-8-41-1.2l-6.3,2.2v5.2c0,0,6.8-1.9,5.2,6.2h2.2V197.1z"/>
		</g>
		<path class="st3" d="M208.9,192.8c0,0-4.5-18.2,30.8-13.3c0,0,9.7,0.2,10.2,9.2c0,0,3.2,28.3-29,22.7
			C220.9,211.3,211.4,208,208.9,192.8z"/>
		<path class="st3" d="M268.2,188.2c0,0-2.7-16.2,30-13.7c0,0,10.8,0.7,9.5,10.6c0,0,1.8,26.2-24.2,22.4
			C283.6,207.5,269.7,204.2,268.2,188.2z"/>
	</g>
	<path class="st3" d="M306.7,171.8c0,0-3-24-13.8-28c0,0-6.2-0.8-8.2-5c0,0-4.2,5.5-27.5,6.2c0,0-12.8,0.2-14-2
		c0,0-11.8-2.5-14.8,5.8c0,0-6.2,6.5-3.2,16.2c0,0-1.8,6.5-9.8,10.5c0,0,1.7-2.4,5.6-11.4c0,0-4.8,4-5.6,8.2c0,0-7.6,11.6,2.9-9.2
		c0,0,5.2-12-5.5,1.5c0,0-2.1,2.9-5.3,1.6c0,0-1.2,6-5.4,13.1c0,0,36-8.5,46.5,1.4c0,0,7-2.8,14.3-1.6c0,0,1.5,1.6,8-3.4
		C270.8,175.8,277.5,170,306.7,171.8z"/>
</g>
</svg>
